<svg xmlns="http://www.w3.org/2000/svg" width="128" height="128" viewBox="0 0 33.867 33.867"><path fill="#06f" d="M 11.224636,1.0583333 H 21.828124 V 18.215136 H 11.224636 Z" paint-order="markers fill stroke"/><path fill="#a8d0ff" d="m 11.224636,1.0583333 5.939689,15.8749997 v 13.440004 c 0,1.124484 -0.80366,1.486847 -1.206587,1.623711 -3.563989,1.210598 -7.1107136,1.083341 -10.6660716,-0.472636 -1.342824,-0.587679 -2.350526,-1.168352 -2.116666,-2.645833 l 0.529166,-2.940906 V 16.50907 c 0,0 0.720581,-9.8540742 0.927937,-13.3198474 0.04079,-0.6817529 0.129903,-1.2268779 1.077218,-1.4872288 2.246063,-0.617286 3.375078,-0.5374694 3.698889,-0.6436605 z" paint-order="markers fill stroke"/><path fill="#00a1ff" d="M 21.773089,1.0583333 16.243422,15.837468 C 15.938084,16.654753 15.8334,17.305854 15.8334,18.289322 v 12.084015 c 0,1.124484 0.80366,1.486847 1.206587,1.623711 3.563989,1.210598 7.110714,1.083341 10.666072,-0.472636 1.342824,-0.587679 2.350526,-1.168352 2.116666,-2.645833 L 29.293559,25.937673 V 16.50907 c 0,0 -0.720581,-9.8540742 -0.927937,-13.3198474 C 28.324833,2.5074697 28.235719,1.9623447 27.288404,1.7019938 25.042341,1.0847078 23.913326,1.1645244 23.589515,1.0583333 Z" paint-order="markers fill stroke"/><path fill="#fff" d="M18.055866 21.608739a1.1225319 1.1225319 0 0 1-1.122532-1.122532 1.1225319 1.1225319 0 0 1 1.122532-1.122532 1.1225319 1.1225319 0 0 1 1.122532 1.122532 1.1225319 1.1225319 0 0 1-1.122532 1.122532zM18.055866 27.252083a1.1225319 1.1225319 0 0 1-1.122532-1.122532 1.1225319 1.1225319 0 0 1 1.122532-1.122532 1.1225319 1.1225319 0 0 1 1.122532 1.122532 1.1225319 1.1225319 0 0 1-1.122532 1.122532z" paint-order="markers fill stroke"/><path fill="#fff" d="M 14 89.121094 L 14 94.623047 C 18.781533 96.735457 25.943539 99.021484 34.650391 99.021484 A 2.4999999 2.4999999 0 0 0 37.146484 96.517578 A 2.4999999 2.4999999 0 0 0 34.650391 94.023438 C 25.299269 94.023438 18.036301 91.172934 14 89.121094 z " color="#000" font-family="sans-serif" font-weight="400" overflow="visible" paint-order="markers fill stroke" transform="scale(.26458)" style="line-height:normal;font-variant-ligatures:normal;font-variant-position:normal;font-variant-caps:normal;font-variant-numeric:normal;font-variant-alternates:normal;font-variant-east-asian:normal;font-feature-settings:normal;font-variation-settings:normal;text-indent:0;text-align:start;text-decoration-line:none;text-decoration-style:solid;text-decoration-color:#000;text-transform:none;text-orientation:mixed;shape-padding:0;shape-margin:0;inline-size:0;isolation:auto;mix-blend-mode:normal"/><path fill="#fff" style="line-height:normal;font-variant-ligatures:normal;font-variant-position:normal;font-variant-caps:normal;font-variant-numeric:normal;font-variant-alternates:normal;font-variant-east-asian:normal;font-feature-settings:normal;font-variation-settings:normal;text-indent:0;text-align:start;text-decoration-line:none;text-decoration-style:solid;text-decoration-color:#000;text-transform:none;text-orientation:mixed;shape-padding:0;shape-margin:0;inline-size:0;isolation:auto;mix-blend-mode:normal" d="m 29.293818,23.579956 v 1.455725 c -1.265114,0.558908 -3.160061,1.163753 -5.463749,1.163753 a 0.6614583,0.6614583 0 0 1 -0.660425,-0.662492 0.6614583,0.6614583 0 0 1 0.660425,-0.659908 c 2.474151,0 4.395811,-0.754196 5.463749,-1.297078 z" color="#000" font-family="sans-serif" font-weight="400" overflow="visible" paint-order="markers fill stroke"/></svg>