<svg xmlns="http://www.w3.org/2000/svg" width="32" height="32" viewBox="0 0 32 32"><g transform="translate(0 -1020.362)"><g transform="translate(-147.998 7.68)"><path fill="#a0c2f6" d="m 166.11133,17.179688 2.54883,0 0,-2.794922 c 1.31322,-0.212423 2.55822,-0.730225 3.63476,-1.511719 l 1.97852,1.982422 1.90039,-1.900391 -1.98047,-1.978516 c 0.77872,-1.0772719 1.29382,-2.3222192 1.50391,-3.6347651 l 2.80078,0 0,-2.6835938 -2.79493,0 C 175.4907,3.3449806 174.9729,2.099981 174.19141,1.0234375 l 1.98242,-1.98046875 -1.90039,-1.89843755 -1.97852,1.9804688 c -1.07727,-0.7787142 -2.32222,-1.2938187 -3.63476,-1.5039062 l 0,-2.8007813 -2.6836,0 0,2.7949219 c -1.31322,0.2124225 -2.55822,0.7302246 -3.63476,1.51171872 l -1.98047,-1.98242192 -1.89844,1.89843755 1.98047,1.98046875 c -0.20282,0.4020892 -0.43728,0.7874177 -0.70117,1.1523437 l 0.002,0.00391 0.39453,0 0,0.9296875 -0.5087,1.9319178 1.18839,-0.3323084 c 0.56501,0.1477613 1.11001,0.3635306 1.62305,0.6425781 0.32479,-2.4451871 2.41029,-4.2717679 4.87695,-4.2714844 2.71736,-3.891e-4 4.92031,2.2025632 4.91992,4.9199219 -2.1e-4,2.2625179 -1.54365,4.2331353 -3.74023,4.7753913 l 0,2.044921 -2.37891,0 c -0.137,0.841624 -0.422,1.652327 -0.8418,2.394532 l -0.84183,0.727458 z" color="#000" enable-background="accumulate" overflow="visible" transform="translate(0 1020.362)" style="isolation:auto;mix-blend-mode:normal;solid-color:#000;solid-opacity:1"/><path fill="#6ca6fd" d="m 175.20898,-1.9199219 c -1.47624,1.47624052 -2.95344,2.9514951 -4.42968,4.4277344 0.89963,0.8915725 1.45918,2.1254929 1.45898,3.4921875 -2.1e-4,2.2625179 -1.54365,4.233135 -3.74023,4.775391 l 0,2.044921 -2.37891,0 c -0.137,0.841624 -0.422,1.652327 -0.8418,2.394532 l -0.84179,0.726562 1.67578,1.238282 2.54883,0 0,-2.794922 c 1.31322,-0.212423 2.55822,-0.730225 3.63476,-1.511719 l 1.97852,1.982422 1.90039,-1.900391 -1.98047,-1.978516 c 0.77872,-1.0772714 1.29382,-2.3222192 1.50391,-3.6347651 l 2.80078,0 0,-2.6835938 -2.79493,0 C 175.4907,3.3449806 174.9729,2.099981 174.19141,1.0234375 l 1.98242,-1.98046875 -0.96485,-0.96289065 z" color="#000" enable-background="accumulate" overflow="visible" transform="translate(0 1020.362)" style="isolation:auto;mix-blend-mode:normal;solid-color:#000;solid-opacity:1"/><path style="isolation:auto;mix-blend-mode:normal;solid-color:#000;solid-opacity:1" fill="none" stroke="#0e7bff" stroke-linecap="round" stroke-linejoin="round" d="m 166.11133,17.179688 2.54883,0 0,-2.794922 c 1.31322,-0.212423 2.55822,-0.730225 3.63476,-1.511719 l 1.97852,1.982422 1.90039,-1.900391 -1.98047,-1.978516 c 0.77872,-1.0772719 1.29382,-2.3222192 1.50391,-3.6347651 l 2.80078,0 0,-2.6835938 -2.79493,0 C 175.4907,3.3449806 174.9729,2.099981 174.19141,1.0234375 l 1.98242,-1.98046875 -1.90039,-1.89843755 -1.97852,1.9804688 c -1.07727,-0.7787142 -2.32222,-1.2938187 -3.63476,-1.5039062 l 0,-2.8007813 -2.6836,0 0,2.7949219 c -1.31322,0.2124225 -2.55822,0.7302246 -3.63476,1.51171872 l -1.98047,-1.98242192 -1.89844,1.89843755 1.98047,1.98046875 c -0.20282,0.4020892 -0.43728,0.7874177 -0.70117,1.1523437 l 0.002,0.00391 0.39453,0 0,0.9296875 -0.5087,1.9319178 1.18839,-0.3323084 c 0.56501,0.1477613 1.11001,0.3635306 1.62305,0.6425781 0.32479,-2.4451871 2.41029,-4.2717679 4.87695,-4.2714844 2.71736,-3.891e-4 4.92031,2.2025632 4.91992,4.9199219 -2.1e-4,2.2625179 -1.54365,4.2331353 -3.74023,4.7753913 l 0,2.044921 -2.37891,0 c -0.137,0.841624 -0.422,1.652327 -0.8418,2.394532 l -0.84183,0.727458 z" color="#000" enable-background="accumulate" overflow="visible" transform="translate(0 1020.362)"/><path fill="#e4edfd" d="m 157.85742,2.1796875 0,2.375 a 7.2200007,7.2200007 0 0 0 -3.08789,1.2851563 l -1.68164,-1.6835938 -1.61328,1.6132812 1.68164,1.6816407 a 7.2200007,7.2200007 0 0 0 -1.2793,3.0878901 l -2.3789,0 0,2.28125 2.375,0 a 7.2200007,7.2200007 0 0 0 1.2832,3.087891 l -1.68164,1.681641 1.61328,1.615234 1.68164,-1.68164 a 7.2200007,7.2200007 0 0 0 3.08789,1.277343 l 0,2.378907 2.28125,0 0,-2.375 a 7.2200007,7.2200007 0 0 0 3.08789,-1.283204 l 1.68164,1.683594 1.61328,-1.615234 -1.68164,-1.681641 a 7.2200007,7.2200007 0 0 0 1.2793,-3.087891 l 2.37891,0 0,-2.28125 -2.375,0 A 7.2200007,7.2200007 0 0 0 164.83984,7.4511719 L 166.52148,5.7695312 164.9082,4.15625 163.22656,5.8378906 a 7.2200007,7.2200007 0 0 0 -3.08789,-1.2792968 l 0,-2.3789063 -2.28125,0 z M 158.99805,7.5 a 4.1800132,4.1800132 0 0 1 4.17968,4.179688 4.1800132,4.1800132 0 0 1 -4.17968,4.179687 4.1800132,4.1800132 0 0 1 -4.17969,-4.179687 A 4.1800132,4.1800132 0 0 1 158.99805,7.5 Z" color="#000" enable-background="accumulate" overflow="visible" transform="translate(0 1020.362)" style="isolation:auto;mix-blend-mode:normal;solid-color:#000;solid-opacity:1"/><path fill="#bdd4fa" d="m 165.6875,4.9375 c -1.25459,1.2545896 -2.50908,2.5090832 -3.76367,3.7636719 a 4.1800132,4.1800132 0 0 1 1.2539,2.9785161 4.1800132,4.1800132 0 0 1 -4.17968,4.179687 4.1800132,4.1800132 0 0 1 -2.98047,-1.251953 c -1.25459,1.254588 -2.50908,2.509085 -3.76367,3.763672 l 0.83398,0.833984 1.68164,-1.68164 a 7.2200007,7.2200007 0 0 0 3.08789,1.277343 l 0,2.378907 2.28125,0 0,-2.375 a 7.2200007,7.2200007 0 0 0 3.08789,-1.283204 l 1.68164,1.683594 1.61328,-1.615234 -1.68164,-1.681641 a 7.2200007,7.2200007 0 0 0 1.2793,-3.087891 l 2.37891,0 0,-2.28125 -2.375,0 A 7.2200007,7.2200007 0 0 0 164.83984,7.4511719 L 166.52148,5.7695312 165.6875,4.9375 Z" color="#000" enable-background="accumulate" overflow="visible" transform="translate(0 1020.362)" style="isolation:auto;mix-blend-mode:normal;solid-color:#000;solid-opacity:1"/><path style="isolation:auto;mix-blend-mode:normal;solid-color:#000;solid-opacity:1" fill="none" stroke="#0e7bff" stroke-linecap="round" stroke-linejoin="round" d="m 157.85742,2.1796875 0,2.375 a 7.2200007,7.2200007 0 0 0 -3.08789,1.2851563 l -1.68164,-1.6835938 -1.61328,1.6132812 1.68164,1.6816407 a 7.2200007,7.2200007 0 0 0 -1.2793,3.0878901 l -2.3789,0 0,2.28125 2.375,0 a 7.2200007,7.2200007 0 0 0 1.2832,3.087891 l -1.68164,1.681641 1.61328,1.615234 1.68164,-1.68164 a 7.2200007,7.2200007 0 0 0 3.08789,1.277343 l 0,2.378907 2.28125,0 0,-2.375 a 7.2200007,7.2200007 0 0 0 3.08789,-1.283204 l 1.68164,1.683594 1.61328,-1.615234 -1.68164,-1.681641 a 7.2200007,7.2200007 0 0 0 1.2793,-3.087891 l 2.37891,0 0,-2.28125 -2.375,0 A 7.2200007,7.2200007 0 0 0 164.83984,7.4511719 L 166.52148,5.7695312 164.9082,4.15625 163.22656,5.8378906 a 7.2200007,7.2200007 0 0 0 -3.08789,-1.2792968 l 0,-2.3789063 -2.28125,0 z M 158.99805,7.5 a 4.1800132,4.1800132 0 0 1 4.17968,4.179688 4.1800132,4.1800132 0 0 1 -4.17968,4.179687 4.1800132,4.1800132 0 0 1 -4.17969,-4.179687 A 4.1800132,4.1800132 0 0 1 158.99805,7.5 Z" color="#000" enable-background="accumulate" overflow="visible" transform="translate(0 1020.362)"/></g></g></svg>